<?xml version="1.0" encoding="UTF-8" standalone="no"?>
<svg
   xmlns:dc="http://purl.org/dc/elements/1.1/"
   xmlns:cc="http://creativecommons.org/ns#"
   xmlns:rdf="http://www.w3.org/1999/02/22-rdf-syntax-ns#"
   xmlns:svg="http://www.w3.org/2000/svg"
   xmlns="http://www.w3.org/2000/svg"
   xmlns:xlink="http://www.w3.org/1999/xlink"
   xmlns:sodipodi="http://sodipodi.sourceforge.net/DTD/sodipodi-0.dtd"
   xmlns:inkscape="http://www.inkscape.org/namespaces/inkscape"
   height="492pt"
   viewBox="0 -109 492.13704 492"
   width="492pt"
   version="1.1"
   id="svg41"
   sodipodi:docname="ai.svg"
   inkscape:version="0.92.2 (5c3e80d, 2017-08-06)">
  <metadata
     id="metadata47">
    <rdf:RDF>
      <cc:Work
         rdf:about="">
        <dc:format>image/svg+xml</dc:format>
        <dc:type
           rdf:resource="http://purl.org/dc/dcmitype/StillImage" />
        <dc:title></dc:title>
      </cc:Work>
    </rdf:RDF>
  </metadata>
  <defs
     id="defs45" />
  <sodipodi:namedview
     pagecolor="#ffffff"
     bordercolor="#666666"
     borderopacity="1"
     objecttolerance="10"
     gridtolerance="10"
     guidetolerance="10"
     inkscape:pageopacity="0"
     inkscape:pageshadow="2"
     inkscape:window-width="1920"
     inkscape:window-height="1001"
     id="namedview43"
     showgrid="false"
     inkscape:zoom="0.71951219"
     inkscape:cx="276.16233"
     inkscape:cy="339.27287"
     inkscape:window-x="-9"
     inkscape:window-y="-9"
     inkscape:window-maximized="1"
     inkscape:current-layer="svg41" />
  <linearGradient
     id="lg1">
    <stop
       offset=".322"
       stop-color="#a163f5"
       id="stop2" />
    <stop
       offset=".466"
       stop-color="#b074ee"
       id="stop4" />
    <stop
       offset=".752"
       stop-color="#d8a1dd"
       id="stop6" />
    <stop
       offset=".898"
       stop-color="#efbad3"
       id="stop8" />
  </linearGradient>
  <linearGradient
     id="linear0"
     gradientUnits="userSpaceOnUse"
     x1="346.325522"
     x2="346.325522"
     xlink:href="#lg1"
     y1="369.2644"
     y2="-81.5176" />
  <linearGradient
     id="linear1"
     gradientUnits="userSpaceOnUse"
     x1="299.585522"
     x2="299.585522"
     xlink:href="#lg1"
     y1="369.2644"
     y2="-81.5176" />
  <linearGradient
     id="linear2"
     gradientUnits="userSpaceOnUse"
     x1="315.449522"
     x2="315.449522"
     xlink:href="#lg1"
     y1="369.2644"
     y2="-81.5176" />
  <linearGradient
     id="linear3"
     gradientUnits="userSpaceOnUse"
     x1="145.811522"
     x2="145.811522"
     xlink:href="#lg1"
     y1="369.2644"
     y2="-81.5176" />
  <linearGradient
     id="linear4"
     gradientUnits="userSpaceOnUse"
     x1="192.551522"
     x2="192.551522"
     xlink:href="#lg1"
     y1="369.2644"
     y2="-81.5176" />
  <linearGradient
     id="linear5"
     gradientUnits="userSpaceOnUse"
     x1="176.687522"
     x2="176.687522"
     xlink:href="#lg1"
     y1="369.2644"
     y2="-81.5176" />
  <linearGradient
     id="linear6"
     gradientUnits="userSpaceOnUse"
     x1="246.068522"
     x2="246.068522"
     xlink:href="#lg1"
     y1="369.2644"
     y2="-81.5176" />
  <linearGradient
     id="linear7"
     gradientUnits="userSpaceOnUse"
     x1="216.684522"
     x2="216.684522"
     xlink:href="#lg1"
     y1="369.2644"
     y2="-81.5176" />
  <linearGradient
     id="linear8"
     gradientUnits="userSpaceOnUse"
     x1="246.159522"
     x2="246.159522"
     xlink:href="#lg1"
     y1="369.2644"
     y2="-81.5176" />
  <linearGradient
     id="linear9"
     gradientUnits="userSpaceOnUse"
     x1="275.452522"
     x2="275.452522"
     xlink:href="#lg1"
     y1="369.2644"
     y2="-81.5176" />
  <path
     d="m353.859375 111.164062c-3.878906-1.90625-5.890625-6.269531-4.824219-10.457031.824219-3.210937-1.109375-6.480469-4.316406-7.304687-3.210938-.824219-6.480469 1.109375-7.304688 4.316406-1.371093 5.363281-.578124 11.046875 2.199219 15.835938-.433593 1.527343-1.257812 2.914062-2.394531 4.027343-2.367188 2.316407-2.410156 6.113281-.09375 8.484375s6.113281 2.414063 8.484375.097656c1.25-1.226562 2.339844-2.605468 3.25-4.101562 2.980469 1.238281 6.40625-.101562 7.753906-3.039062 1.347657-2.933594.128907-6.40625-2.753906-7.859376zm0 0"
     fill="url(#linear0)"
     id="path21"
     style="fill:#000000;fill-opacity:1" />
  <path
     d="m314.886719 72.394531c3.210937.824219 6.480469-1.109375 7.304687-4.320312.824219-3.207031-1.105468-6.480469-4.316406-7.304688-8.640625-2.210937-17.738281 1.246094-22.734375 8.640625-2.949219.511719-5.964844-.460937-8.0625-2.597656-1.492187-1.5625-3.710937-2.207031-5.808594-1.679688-2.097656.527344-3.746093 2.140626-4.320312 4.226563s.015625 4.316406 1.546875 5.84375c3.46875 3.546875 8.082031 5.753906 13.019531 6.230469.015625 1.335937.15625 2.664062.414063 3.972656.425781 2.105469 1.167968 4.136719 2.203124 6.023438 1.597657 2.902343 5.246094 3.957031 8.148438 2.359374 2.902344-1.601562 3.960938-5.25 2.359375-8.152343-1.398437-2.542969-1.503906-5.601563-.285156-8.238281 1.222656-2.632813 3.625-4.527344 6.46875-5.105469 1.34375-.277344 2.734375-.242188 4.0625.101562zm0 0"
     fill="url(#linear1)"
     id="path23"
     style="fill:#000000;fill-opacity:1" />
  <path
     d="m331.269531 205.0625c.832031-2.804688 2.351563-5.359375 4.425781-7.425781 1.535157-1.511719 2.144532-3.730469 1.59375-5.816407-.550781-2.082031-2.175781-3.710937-4.261718-4.261718-2.082032-.554688-4.300782.050781-5.8125 1.585937-2.953125 2.949219-5.246094 6.488281-6.730469 10.390625-5.695313 2.714844-12.410156 2.164063-17.585937-1.449218-2.714844-1.902344-6.457032-1.242188-8.355469 1.472656-1.902344 2.714844-1.242188 6.457031 1.472656 8.355468 3.640625 2.558594 7.816406 4.25 12.210937 4.953126 3.457032.5625 6.988282.5 10.421876-.1875.539062 5.941406 2.851562 11.585937 6.640624 16.191406 1.359376 1.667968 3.507813 2.480468 5.632813 2.132812 2.121094-.351562 3.894531-1.8125 4.644531-3.832031.75-2.015625.363282-4.28125-1.015625-5.933594-3.59375-4.367187-4.867187-10.199219-3.425781-15.667969.050781-.167968.097656-.335937.144531-.507812zm0 0"
     fill="url(#linear2)"
     id="path25"
     style="fill:#000000;fill-opacity:1" />
  <path
     d="m154.914062 117.578125c-1.136718-1.109375-1.960937-2.5-2.390624-4.027344 2.777343-4.785156 3.566406-10.472656 2.199218-15.832031-.824218-3.210938-4.097656-5.144531-7.304687-4.320312-3.210938.824218-5.144531 4.09375-4.320313 7.304687 1.070313 4.1875-.941406 8.554687-4.820312 10.460937-2.882813 1.453126-4.101563 4.925782-2.753906 7.859376 1.347656 2.9375 4.773437 4.28125 7.753906 3.039062.910156 1.5 2 2.875 3.25 4.101562 2.367187 2.316407 6.167968 2.273438 8.484375-.097656 2.316406-2.367187 2.273437-6.167968-.097657-8.484375zm0 0"
     fill="url(#linear3)"
     id="path27"
     style="fill:#000000;fill-opacity:1" />
  <path
     d="m177.25 72.394531c1.328125-.34375 2.714844-.375 4.054688-.101562 2.847656.578125 5.25 2.472656 6.46875 5.109375 1.222656 2.632812 1.117187 5.691406-.28125 8.234375-1.601563 2.902343-.546876 6.550781 2.355468 8.152343 2.902344 1.597657 6.554688.542969 8.152344-2.359374 1.039062-1.882813 1.78125-3.917969 2.207031-6.027344.261719-1.304688.398438-2.632813.414063-3.964844 4.9375-.476562 9.550781-2.6875 13.019531-6.234375 1.53125-1.527344 2.121094-3.757813 1.550781-5.84375-.574218-2.085937-2.226562-3.699219-4.324218-4.226563-2.097657-.527343-4.316407.117188-5.808594 1.683594-2.097656 2.136719-5.113282 3.105469-8.066406 2.59375-4.992188-7.394531-14.089844-10.851562-22.730469-8.640625-3.207031.828125-5.140625 4.097657-4.316407 7.308594.824219 3.207031 4.09375 5.140625 7.304688 4.316406zm0 0"
     fill="url(#linear4)"
     id="path29"
     style="fill:#000000;fill-opacity:1" />
  <path
     d="m189.246094 198.085938c-5.175782 3.613281-11.894532 4.164062-17.589844 1.445312-1.484375-3.898438-3.777344-7.4375-6.726562-10.386719-2.351563-2.308593-6.125-2.292969-8.453126.039063-2.328124 2.332031-2.339843 6.105468-.027343 8.449218 2.070312 2.070313 3.59375 4.625 4.425781 7.429688.039062.171875.085938.339844.140625.507812 1.445313 5.46875.167969 11.300782-3.425781 15.667969-1.375 1.652344-1.765625 3.917969-1.015625 5.933594.75 2.019531 2.523437 3.480469 4.648437 3.828125 2.121094.351562 4.269532-.460938 5.628906-2.128906 3.789063-4.609375 6.101563-10.25 6.640626-16.191406 7.878906 1.558593 16.054687-.160157 22.636718-4.765626 2.714844-1.898437 3.371094-5.640624 1.472656-8.355468-1.902343-2.714844-5.640624-3.375-8.355468-1.472656zm0 0"
     fill="url(#linear5)"
     id="path31"
     style="fill:#000000;fill-opacity:1" />
  <path
     d="m440.300781 143.265625c3.046875 12.984375 15.339844 21.625 28.589844 20.089844 13.25-1.53125 23.246094-12.753907 23.246094-26.089844 0-13.339844-9.996094-24.558594-23.246094-26.09375-13.25-1.53125-25.542969 7.105469-28.589844 20.09375h-54.066406c2.257813-8.339844 1.4375-17.214844-2.308594-25h6.335938c14.667969.035156 26.585937-11.832031 26.613281-26.5.007812-3.863281 1.554688-7.5625 4.296875-10.285156 2.742187-2.71875 6.453125-4.238281 10.316406-4.214844h4.265625c1.011719 4.800781 3.441406 9.191406 6.976563 12.597656 10.242187 10.230469 26.839843 10.222657 37.074219-.015625 10.234374-10.238281 10.234374-26.835937 0-37.074218-10.234376-10.238282-26.832032-10.246094-37.074219-.015626-3.53125 3.367188-5.960938 7.726563-6.976563 12.5h-4.265625c-14.667969-.039062-26.585937 11.828126-26.613281 26.5-.007812 3.863282-1.550781 7.566407-4.292969 10.289063-2.742187 2.71875-6.457031 4.238281-10.320312 4.21875h-16.078125c-.699219 0-1.417969-.917969-2.171875-1.417969-1.234375-.785156-2.515625-1.492187-3.839844-2.109375 3.921875-15.570312-.527344-32.058593-11.75-43.539062-11.226563-11.480469-27.609375-16.304688-43.261719-12.734375 1.167969-11.4375-4.066406-22.589844-13.609375-29-9.542969-6.410156-21.84375-7.039063-31.992187-1.632813-10.144532 5.40625-16.488282 15.964844-16.488282 27.460938v53.183593c-3.332031-.253906-6.671874-.253906-10 0v-53.183593c.035157-11.523438-6.300781-22.125-16.464843-27.554688-10.167969-5.429687-22.5-4.796875-32.058594 1.640625-9.558594 6.441406-14.777344 17.632813-13.5625 29.09375-15.671875-3.582031-32.078125 1.246094-43.308594 12.746094-11.226562 11.503906-15.664062 28.019531-11.707031 43.601562-1.324219.589844-2.605469 1.269532-3.839844 2.027344-.753906.5-1.472656 1.417969-2.175781 1.417969h-16.078125c-3.863281.019531-7.574219-1.496094-10.316406-4.21875-2.742188-2.71875-4.289063-6.417969-4.296875-10.28125-.027344-14.667969-11.945313-26.539063-26.613281-26.5h-4.265626c-1.015624-4.773437-3.445312-9.132813-6.976562-12.5-10.25-10.28125-26.898438-10.300781-37.171875-.039063-10.273437 10.261719-10.273437 26.910157 0 37.175782 10.273437 10.261718 26.921875 10.242187 37.171875-.039063 3.535156-3.40625 5.964844-7.796875 6.976562-12.597656h4.265626c3.863281-.023437 7.574218 1.496094 10.316406 4.214844 2.742187 2.722656 4.289062 6.421875 4.296875 10.285156.027343 14.667969 11.945312 26.535156 26.613281 26.5h6.335938c-3.746094 7.785156-4.566407 16.660156-2.308594 25h-54.066406c-3.046876-12.988281-15.339844-21.625-28.589844-20.09375-13.25 1.535156-23.246094 12.753906-23.246094 26.09375 0 13.335937 9.996094 24.558594 23.246094 26.089844 13.25 1.535156 25.542968-7.105469 28.589844-20.089844h60.121093c.894531 1.15625 1.867188 2.253906 2.90625 3.289063-6.417969 5.734374-11.105469 13.144531-13.542969 21.398437-14.476562.339844-26.042968 12.167969-26.058593 26.652344-.007813 8.074219-6.535157 14.625-14.613281 14.660156h-4.265626c-1.011718-4.804687-3.441406-9.195313-6.976562-12.601563-10.234375-10.1875-26.789062-10.164062-36.992188.058594-10.207031 10.21875-10.207031 26.773438 0 36.992188 10.203126 10.222656 26.757813 10.246094 36.992188.058594 3.53125-3.375 5.964844-7.734376 6.976562-12.507813h4.265626c14.703124-.042969 26.601562-11.964844 26.613281-26.664063.011719-7.136718 5.164062-13.230468 12.199219-14.421874 0 .269531.226562.523437.226562.792968.003906 19.441406 11.382812 36.089844 29.382812 42.890625v10.335938c-.046874 9.554687 3.710938 18.730469 10.445313 25.511719 6.730469 6.777343 15.886719 10.601562 25.4375 10.621093 5.9375.007813 11.777344-1.476562 16.988281-4.316406 10.765625 8.949219 25.738282 10.859375 38.40625 4.902344 12.667969-5.953125 20.746094-18.703125 20.722656-32.703125v-22.160156c2 .128906 3.3125.210937 5 .210937 1.683594 0 3-.082031 5-.210937v22.160156c.003907 14.011718 8.105469 26.757812 20.789063 32.707031 12.683594 5.953125 27.664063 4.039063 38.445313-4.90625 5.171874 2.835937 10.972656 4.324219 16.871093 4.316406 9.554688-.019531 18.710938-3.84375 25.445313-10.621093 6.730468-6.78125 10.492187-15.960938 10.449218-25.515626v-10.332031c18-6.800781 29.375-23.460937 29.375-42.898437 0-.269532.109376-.535156.101563-.804688 7.054687 1.199219 12.226563 7.292969 12.261719 14.445313.046875 14.714843 11.96875 26.625 26.679687 26.660156h4.265625c1.015625 4.773437 3.445313 9.128906 6.976563 12.5 10.25 10.261719 26.878906 10.269531 37.136719.015625 10.257812-10.253906 10.257812-26.882812 0-37.136719-10.257813-10.25-26.886719-10.242187-37.136719.019531-3.535157 3.40625-5.964844 7.796876-6.976563 12.601563h-4.265625c-8.078125-.035156-14.609375-6.585937-14.613281-14.664063-.015625-14.480468-11.585938-26.296874-26.058594-26.625-2.4375-8.257812-7.125-15.671874-13.539062-21.410156 1.035156-1.035156 2.007812-2.140625 2.902344-3.300781zm15.460938-16.070313c5.5625-5.558593 14.574219-5.558593 20.136719 0 5.558593 5.5625 5.558593 14.578126 0 20.136719-5.5625 5.558594-14.574219 5.558594-20.136719 0-2.679688-2.664062-4.1875-6.289062-4.1875-10.066406 0-3.78125 1.507812-7.40625 4.1875-10.070313zm-4.546875-77.898437c5.558594-5.5625 14.574218-5.558594 20.136718 0 5.558594 5.558594 5.558594 14.574219 0 20.136719-5.5625 5.558594-14.578124 5.558594-20.136718 0-2.679688-2.667969-4.1875-6.289063-4.1875-10.070313 0-3.777343 1.507812-7.402343 4.1875-10.066406zm-410.292969 20.136719c-5.558594 5.554687-14.566406 5.550781-20.121094-.007813-5.554687-5.554687-5.554687-14.5625 0-20.121093 5.554688-5.558594 14.5625-5.5625 20.121094-.007813 5.550781 5.566406 5.550781 14.574219 0 20.136719zm-4.546875 77.898437c-5.558594 5.554688-14.566406 5.550781-20.121094-.003906-5.558594-5.558594-5.558594-14.566406 0-20.125 5.554688-5.554687 14.5625-5.558594 20.121094-.003906 5.550781 5.5625 5.550781 14.570312 0 20.132812zm4.546875 77.902344c-5.558594 5.550781-14.566406 5.550781-20.121094-.007813-5.554687-5.558593-5.554687-14.566406 0-20.121093 5.554688-5.558594 14.5625-5.5625 20.121094-.007813 5.550781 5.5625 5.550781 14.570313 0 20.132813zm410.292969-20.136719c5.558594-5.558594 14.574218-5.558594 20.136718 0 5.558594 5.558594 5.558594 14.574219 0 20.136719-5.5625 5.558594-14.578124 5.558594-20.136718 0-2.679688-2.667969-4.1875-6.289063-4.1875-10.070313s1.507812-7.402343 4.1875-10.070312zm-246.300782 57.25c-4.738281-.007812-9.375-1.402344-13.332031-4.015625 5.972657-6.617187 9.273438-15.21875 9.265625-24.132812 0-3.316407-2.683594-6-6-6-3.3125 0-6 2.683593-6 6 .078125 8.585937-4.457031 16.550781-11.878906 20.867187s-16.589844 4.316406-24.015625 0c-7.421875-4.316406-11.957031-12.28125-11.878906-20.867187v-7.339844c1.589843.203125 3.195312.296875 4.800781.28125 1.578125-.007813 3.085938-.644531 4.191406-1.773437 1.105469-1.128907 1.710938-2.648438 1.683594-4.226563-.027344-3.328125-2.734375-6.003906-6.058594-6-12.257812.074219-23.613281-6.417969-29.765625-17.015625-6.152343-10.597656-6.164062-23.679688-.023437-34.285156 6.136718-10.605469 17.484375-17.113282 29.738281-17.058594 3.316406 0 6-2.691406 5.996094-6.003906-.003907-3.3125-2.691407-5.996094-6.003907-5.996094-7.128906-.003906-14.15625 1.648438-20.53125 4.832031-5.65625-4.53125-8.804687-11.492187-8.476562-18.730469.332031-7.238281 4.105469-13.882812 10.148438-17.878906.535156-.351562 1.085937-.679687 1.644531-.988281.109375.199219.207031.398437.320312.59375 1.65625 2.871094 5.328125 3.847656 8.195313 2.191406 2.871094-1.660156 3.847656-5.332031 2.191406-8.199219-8.085938-14.015624-5.234375-31.78125 6.828125-42.566406s30.03125-11.632812 43.058594-2.035156c1.722656 1.300781 4.011719 1.578125 5.996093.722656 1.980469-.855468 3.351563-2.710937 3.585938-4.859375.234375-2.144531-.703125-4.25-2.453125-5.515625-1.015625-.75-2.054687-1.453125-3.117187-2.113281-3.707032-7.03125-2.683594-15.625 2.578124-21.585937 5.261719-5.957032 13.664063-8.042969 21.101563-5.230469 7.4375 2.808593 12.359375 9.925781 12.367187 17.875v55.210937c-28.871093 7.71875-48.953124 33.875-48.953124 63.761719 0 29.882813 20.082031 56.039063 48.953124 63.757813v24.191406c-.027343 13.324218-10.832031 24.117187-24.15625 24.128906zm31.199219-59c-27.410156-5.140625-46.398437-30.304687-43.816406-58.074218 2.578125-27.765626 25.878906-49.003907 53.769531-49.003907 27.886719 0 51.1875 21.238281 53.765625 49.003907 2.582031 27.769531-16.40625 52.933593-43.816406 58.074218-6.578125 1.214844-13.324219 1.214844-19.898437 0zm110.402344-68.566406c-3.316406 0-6 2.683594-6 6 0 3.3125 2.683594 6 6 6 12.253906-.066406 23.605469 6.433594 29.753906 17.035156 6.144531 10.601563 6.144531 23.683594 0 34.285156-6.148437 10.601563-17.5 17.101563-29.753906 17.035157-3.316406 0-6 2.6875-6 6-.058594 1.566406.523437 3.085937 1.605469 4.214843 1.085937 1.132813 2.582031 1.777344 4.144531 1.785157 1.605469.019531 3.210937-.074219 4.800781-.28125v7.339843c0 13.226563-10.722656 23.949219-23.949218 23.949219-13.226563 0-23.949219-10.722656-23.949219-23.949219.027343-2.144531-1.101563-4.140624-2.953125-5.21875-1.855469-1.082031-4.148438-1.082031-6 0-1.855469 1.078126-2.980469 3.074219-2.953125 5.21875 0 8.917969 3.308593 17.519532 9.285156 24.136719-7.410156 4.902344-16.917969 5.339844-24.75 1.136719s-12.71875-12.367188-12.726563-21.253906v-24.191406c28.867188-7.71875 48.949219-33.875 48.949219-63.757813 0-29.886719-20.082031-56.042969-48.949219-63.761719v-55.210937c-.003906-7.953125 4.917969-15.078125 12.359376-17.890625 7.441406-2.816406 15.84375-.730469 21.109374 5.230468 5.261719 5.964844 6.289063 14.5625 2.574219 21.59375-1.0625.660157-2.101562 1.367188-3.117187 2.117188-2.664063 1.96875-3.226563 5.726562-1.257813 8.390625s5.726563 3.230469 8.390625 1.261719c13.027344-9.597656 30.996094-8.746094 43.058594 2.039062 12.058594 10.78125 14.910156 28.542969 6.832031 42.558594-1.660156 2.867188-.679687 6.539062 2.1875 8.199219 2.867188 1.660156 6.539063.679687 8.199219-2.1875.109375-.195313.207031-.402344.316406-.597657.5625.308594 1.109375.636719 1.644532.992188 6.046874 3.996094 9.816406 10.640625 10.148437 17.878906.332031 7.234375-2.816406 14.195313-8.472656 18.726563-6.375-3.179688-13.402344-4.832031-20.527344-4.824219zm0 0"
     fill="url(#linear6)"
     id="path33"
     style="fill:#000000;fill-opacity:1" />
  <path
     d="m232.726562 169.421875c1.910157-2.707031 1.261719-6.453125-1.445312-8.359375l-15.320312-10.796875 15.320312-10.800781c2.566406-1.957032 3.125-5.59375 1.265625-8.230469s-5.472656-3.332031-8.179687-1.570313l-22.277344 15.699219c-1.597656 1.125-2.542969 2.953125-2.542969 4.90625 0 1.949219.945313 3.777344 2.542969 4.902344l22.277344 15.699219c2.707031 1.910156 6.449218 1.261718 8.359374-1.445313zm0 0"
     fill="url(#linear7)"
     id="path35"
     style="fill:#000000;fill-opacity:1" />
  <path
     d="m255.691406 109.421875c-3.226562-.753906-6.453125 1.253906-7.207031 4.480469l-16.335937 70c-.503907 2.09375.15625 4.296875 1.722656 5.769531 1.566406 1.476563 3.804687 2 5.863281 1.371094 2.0625-.632813 3.625-2.316407 4.101563-4.414063l16.335937-70c.753906-3.226562-1.253906-6.453125-4.480469-7.207031zm0 0"
     fill="url(#linear8)"
     id="path37"
     style="fill:#000000;fill-opacity:1" />
  <path
     d="m259.410156 131.105469c-1.910156 2.710937-1.261718 6.453125 1.449219 8.363281l15.316406 10.796875-15.316406 10.796875c-2.710937 1.910156-3.359375 5.65625-1.449219 8.363281s5.652344 3.355469 8.363282 1.445313l22.273437-15.699219c1.597656-1.125 2.542969-2.953125 2.542969-4.902344 0-1.953125-.945313-3.78125-2.542969-4.90625l-22.277344-15.699219c-2.707031-1.90625-6.449219-1.261718-8.359375 1.441407zm0 0"
     fill="url(#linear9)"
     id="path39"
     style="fill:#000000;fill-opacity:1" />
</svg>
